<mxfile host="app.diagrams.net" modified="2023-04-30T08:12:03.714Z" agent="Mozilla/5.0 (Macintosh; Intel Mac OS X 10.15; rv:109.0) Gecko/20100101 Firefox/112.0" etag="jFieyLcGkqOvAqykcQi9" version="21.2.3" type="github">
  <diagram name="Page-1" id="_rjeUM0GodCOC49pjTvd">
    <mxGraphModel dx="1010" dy="648" grid="1" gridSize="10" guides="1" tooltips="1" connect="1" arrows="1" fold="1" page="1" pageScale="1" pageWidth="1169" pageHeight="827" math="0" shadow="0">
      <root>
        <mxCell id="0" />
        <mxCell id="1" parent="0" />
        <mxCell id="InIGWuEx6WWt7c3NKyPj-1" value="HABITANTE" style="rounded=0;whiteSpace=wrap;html=1;" parent="1" vertex="1">
          <mxGeometry x="90" y="125" width="120" height="60" as="geometry" />
        </mxCell>
        <mxCell id="InIGWuEx6WWt7c3NKyPj-2" value="VIVIENDA" style="rounded=0;whiteSpace=wrap;html=1;" parent="1" vertex="1">
          <mxGeometry x="330" y="280" width="120" height="60" as="geometry" />
        </mxCell>
        <mxCell id="InIGWuEx6WWt7c3NKyPj-3" value="PUEBLO" style="rounded=0;whiteSpace=wrap;html=1;" parent="1" vertex="1">
          <mxGeometry x="560" y="460" width="120" height="60" as="geometry" />
        </mxCell>
        <mxCell id="InIGWuEx6WWt7c3NKyPj-4" value="nrHabitantes" style="ellipse;whiteSpace=wrap;html=1;" parent="1" vertex="1">
          <mxGeometry x="720" y="530" width="100" height="40" as="geometry" />
        </mxCell>
        <mxCell id="InIGWuEx6WWt7c3NKyPj-6" value="nombre" style="ellipse;whiteSpace=wrap;html=1;fontStyle=5" parent="1" vertex="1">
          <mxGeometry x="730" y="470" width="100" height="40" as="geometry" />
        </mxCell>
        <mxCell id="InIGWuEx6WWt7c3NKyPj-7" value="fechaConstr" style="ellipse;whiteSpace=wrap;html=1;" parent="1" vertex="1">
          <mxGeometry x="530" y="234" width="100" height="40" as="geometry" />
        </mxCell>
        <mxCell id="InIGWuEx6WWt7c3NKyPj-8" value="direccion" style="ellipse;whiteSpace=wrap;html=1;fontStyle=5" parent="1" vertex="1">
          <mxGeometry x="540" y="290" width="100" height="40" as="geometry" />
        </mxCell>
        <mxCell id="I-vgnG-i18MrDywC4UqB-1" value="" style="edgeStyle=orthogonalEdgeStyle;rounded=0;orthogonalLoop=1;jettySize=auto;html=1;endArrow=none;endFill=0;exitX=0;exitY=0.5;exitDx=0;exitDy=0;entryX=1;entryY=0.75;entryDx=0;entryDy=0;" edge="1" parent="1" source="InIGWuEx6WWt7c3NKyPj-9" target="InIGWuEx6WWt7c3NKyPj-2">
          <mxGeometry relative="1" as="geometry">
            <mxPoint x="855" y="180" as="sourcePoint" />
          </mxGeometry>
        </mxCell>
        <mxCell id="InIGWuEx6WWt7c3NKyPj-9" value="superficie" style="ellipse;whiteSpace=wrap;html=1;" parent="1" vertex="1">
          <mxGeometry x="490" y="350" width="100" height="40" as="geometry" />
        </mxCell>
        <mxCell id="InIGWuEx6WWt7c3NKyPj-10" value="apellidos" style="ellipse;whiteSpace=wrap;html=1;" parent="1" vertex="1">
          <mxGeometry x="290" y="160" width="100" height="40" as="geometry" />
        </mxCell>
        <mxCell id="InIGWuEx6WWt7c3NKyPj-11" value="nombre" style="ellipse;whiteSpace=wrap;html=1;" parent="1" vertex="1">
          <mxGeometry x="270" y="90" width="100" height="40" as="geometry" />
        </mxCell>
        <mxCell id="InIGWuEx6WWt7c3NKyPj-12" value="&lt;b&gt;&lt;u&gt;nrPadron&lt;/u&gt;&lt;/b&gt;" style="ellipse;whiteSpace=wrap;html=1;" parent="1" vertex="1">
          <mxGeometry x="240" y="40" width="100" height="40" as="geometry" />
        </mxCell>
        <mxCell id="InIGWuEx6WWt7c3NKyPj-13" value="dni" style="ellipse;whiteSpace=wrap;html=1;" parent="1" vertex="1">
          <mxGeometry x="130" y="30" width="100" height="40" as="geometry" />
        </mxCell>
        <mxCell id="InIGWuEx6WWt7c3NKyPj-14" value="&lt;span&gt;&lt;span&gt;dni_propietario&lt;/span&gt;&lt;/span&gt;" style="ellipse;whiteSpace=wrap;html=1;fontStyle=0" parent="1" vertex="1">
          <mxGeometry x="430" y="214" width="100" height="40" as="geometry" />
        </mxCell>
        <mxCell id="InIGWuEx6WWt7c3NKyPj-16" value="comarca" style="ellipse;whiteSpace=wrap;html=1;" parent="1" vertex="1">
          <mxGeometry x="710" y="420" width="100" height="40" as="geometry" />
        </mxCell>
        <mxCell id="I-vgnG-i18MrDywC4UqB-2" value="" style="endArrow=none;html=1;rounded=0;exitX=0.833;exitY=0.017;exitDx=0;exitDy=0;exitPerimeter=0;" edge="1" parent="1" source="InIGWuEx6WWt7c3NKyPj-2" target="InIGWuEx6WWt7c3NKyPj-14">
          <mxGeometry width="50" height="50" relative="1" as="geometry">
            <mxPoint x="785" y="160" as="sourcePoint" />
            <mxPoint x="835" y="110" as="targetPoint" />
          </mxGeometry>
        </mxCell>
        <mxCell id="I-vgnG-i18MrDywC4UqB-3" value="" style="endArrow=none;html=1;rounded=0;exitX=1;exitY=0.5;exitDx=0;exitDy=0;entryX=0;entryY=1;entryDx=0;entryDy=0;" edge="1" parent="1" source="InIGWuEx6WWt7c3NKyPj-3" target="InIGWuEx6WWt7c3NKyPj-16">
          <mxGeometry width="50" height="50" relative="1" as="geometry">
            <mxPoint x="680" y="494" as="sourcePoint" />
            <mxPoint x="730" y="444" as="targetPoint" />
          </mxGeometry>
        </mxCell>
        <mxCell id="I-vgnG-i18MrDywC4UqB-4" value="" style="endArrow=none;html=1;rounded=0;exitX=1;exitY=0.5;exitDx=0;exitDy=0;entryX=0;entryY=0.5;entryDx=0;entryDy=0;" edge="1" parent="1" source="InIGWuEx6WWt7c3NKyPj-2" target="InIGWuEx6WWt7c3NKyPj-8">
          <mxGeometry width="50" height="50" relative="1" as="geometry">
            <mxPoint x="695" y="180" as="sourcePoint" />
            <mxPoint x="745" y="130" as="targetPoint" />
          </mxGeometry>
        </mxCell>
        <mxCell id="I-vgnG-i18MrDywC4UqB-5" value="" style="endArrow=none;html=1;rounded=0;exitX=1;exitY=0.25;exitDx=0;exitDy=0;entryX=0.5;entryY=1;entryDx=0;entryDy=0;" edge="1" parent="1" source="InIGWuEx6WWt7c3NKyPj-2" target="InIGWuEx6WWt7c3NKyPj-7">
          <mxGeometry width="50" height="50" relative="1" as="geometry">
            <mxPoint x="585" y="190" as="sourcePoint" />
            <mxPoint x="635" y="140" as="targetPoint" />
          </mxGeometry>
        </mxCell>
        <mxCell id="I-vgnG-i18MrDywC4UqB-6" value="" style="endArrow=none;html=1;rounded=0;entryX=1;entryY=0.75;entryDx=0;entryDy=0;" edge="1" parent="1" source="InIGWuEx6WWt7c3NKyPj-6" target="InIGWuEx6WWt7c3NKyPj-3">
          <mxGeometry width="50" height="50" relative="1" as="geometry">
            <mxPoint x="640" y="540" as="sourcePoint" />
            <mxPoint x="710" y="500" as="targetPoint" />
          </mxGeometry>
        </mxCell>
        <mxCell id="I-vgnG-i18MrDywC4UqB-7" value="" style="endArrow=none;html=1;rounded=0;exitX=0.5;exitY=0;exitDx=0;exitDy=0;entryX=1;entryY=1;entryDx=0;entryDy=0;" edge="1" parent="1" source="InIGWuEx6WWt7c3NKyPj-4" target="InIGWuEx6WWt7c3NKyPj-3">
          <mxGeometry width="50" height="50" relative="1" as="geometry">
            <mxPoint x="980" y="450" as="sourcePoint" />
            <mxPoint x="700" y="510" as="targetPoint" />
            <Array as="points" />
          </mxGeometry>
        </mxCell>
        <mxCell id="I-vgnG-i18MrDywC4UqB-8" value="" style="endArrow=none;html=1;rounded=0;entryX=0;entryY=1;entryDx=0;entryDy=0;exitX=0.25;exitY=0;exitDx=0;exitDy=0;" edge="1" parent="1" source="InIGWuEx6WWt7c3NKyPj-1" target="InIGWuEx6WWt7c3NKyPj-13">
          <mxGeometry width="50" height="50" relative="1" as="geometry">
            <mxPoint x="160" y="120" as="sourcePoint" />
            <mxPoint x="255" y="145" as="targetPoint" />
          </mxGeometry>
        </mxCell>
        <mxCell id="I-vgnG-i18MrDywC4UqB-9" value="" style="endArrow=none;html=1;rounded=0;exitX=0.858;exitY=-0.05;exitDx=0;exitDy=0;entryX=0.04;entryY=0.3;entryDx=0;entryDy=0;entryPerimeter=0;exitPerimeter=0;" edge="1" parent="1" source="InIGWuEx6WWt7c3NKyPj-1" target="InIGWuEx6WWt7c3NKyPj-12">
          <mxGeometry width="50" height="50" relative="1" as="geometry">
            <mxPoint x="230" y="235" as="sourcePoint" />
            <mxPoint x="280" y="185" as="targetPoint" />
          </mxGeometry>
        </mxCell>
        <mxCell id="I-vgnG-i18MrDywC4UqB-10" value="" style="endArrow=none;html=1;rounded=0;exitX=0;exitY=0;exitDx=0;exitDy=0;entryX=1;entryY=0.75;entryDx=0;entryDy=0;" edge="1" parent="1" source="InIGWuEx6WWt7c3NKyPj-10" target="InIGWuEx6WWt7c3NKyPj-1">
          <mxGeometry width="50" height="50" relative="1" as="geometry">
            <mxPoint x="105" y="270" as="sourcePoint" />
            <mxPoint x="155" y="220" as="targetPoint" />
          </mxGeometry>
        </mxCell>
        <mxCell id="I-vgnG-i18MrDywC4UqB-11" value="" style="endArrow=none;html=1;rounded=0;exitX=1;exitY=0.383;exitDx=0;exitDy=0;exitPerimeter=0;" edge="1" parent="1" source="InIGWuEx6WWt7c3NKyPj-1" target="InIGWuEx6WWt7c3NKyPj-11">
          <mxGeometry width="50" height="50" relative="1" as="geometry">
            <mxPoint x="220" y="270" as="sourcePoint" />
            <mxPoint x="270" y="220" as="targetPoint" />
          </mxGeometry>
        </mxCell>
        <mxCell id="I-vgnG-i18MrDywC4UqB-20" value="posee" style="rhombus;whiteSpace=wrap;html=1;" vertex="1" parent="1">
          <mxGeometry x="110" y="270" width="80" height="80" as="geometry" />
        </mxCell>
        <mxCell id="I-vgnG-i18MrDywC4UqB-21" value="" style="endArrow=none;html=1;rounded=0;entryX=0.5;entryY=1;entryDx=0;entryDy=0;exitX=0.5;exitY=0;exitDx=0;exitDy=0;" edge="1" parent="1" source="I-vgnG-i18MrDywC4UqB-20" target="InIGWuEx6WWt7c3NKyPj-1">
          <mxGeometry width="50" height="50" relative="1" as="geometry">
            <mxPoint x="150" y="280" as="sourcePoint" />
            <mxPoint x="470" y="230" as="targetPoint" />
          </mxGeometry>
        </mxCell>
        <mxCell id="I-vgnG-i18MrDywC4UqB-22" value="" style="endArrow=none;html=1;rounded=0;exitX=1;exitY=0.5;exitDx=0;exitDy=0;entryX=0;entryY=0.5;entryDx=0;entryDy=0;" edge="1" parent="1" source="I-vgnG-i18MrDywC4UqB-20" target="InIGWuEx6WWt7c3NKyPj-2">
          <mxGeometry width="50" height="50" relative="1" as="geometry">
            <mxPoint x="180" y="320" as="sourcePoint" />
            <mxPoint x="400" y="310" as="targetPoint" />
          </mxGeometry>
        </mxCell>
        <mxCell id="I-vgnG-i18MrDywC4UqB-23" value="vive" style="rhombus;whiteSpace=wrap;html=1;" vertex="1" parent="1">
          <mxGeometry x="110" y="370" width="80" height="80" as="geometry" />
        </mxCell>
        <mxCell id="I-vgnG-i18MrDywC4UqB-24" value="" style="endArrow=none;html=1;rounded=0;entryX=0;entryY=0.5;entryDx=0;entryDy=0;exitX=0;exitY=0.5;exitDx=0;exitDy=0;" edge="1" parent="1" source="I-vgnG-i18MrDywC4UqB-23" target="InIGWuEx6WWt7c3NKyPj-1">
          <mxGeometry width="50" height="50" relative="1" as="geometry">
            <mxPoint x="420" y="310" as="sourcePoint" />
            <mxPoint x="470" y="260" as="targetPoint" />
            <Array as="points">
              <mxPoint x="70" y="410" />
              <mxPoint x="70" y="300" />
              <mxPoint x="70" y="155" />
            </Array>
          </mxGeometry>
        </mxCell>
        <mxCell id="I-vgnG-i18MrDywC4UqB-25" value="" style="endArrow=none;html=1;rounded=0;exitX=1;exitY=0.5;exitDx=0;exitDy=0;entryX=0.5;entryY=1;entryDx=0;entryDy=0;" edge="1" parent="1" source="I-vgnG-i18MrDywC4UqB-23" target="InIGWuEx6WWt7c3NKyPj-2">
          <mxGeometry width="50" height="50" relative="1" as="geometry">
            <mxPoint x="320" y="440" as="sourcePoint" />
            <mxPoint x="370" y="390" as="targetPoint" />
            <Array as="points">
              <mxPoint x="390" y="410" />
            </Array>
          </mxGeometry>
        </mxCell>
        <mxCell id="I-vgnG-i18MrDywC4UqB-26" value="(1,N)" style="text;html=1;strokeColor=none;fillColor=none;align=center;verticalAlign=middle;whiteSpace=wrap;rounded=0;" vertex="1" parent="1">
          <mxGeometry x="150" y="184" width="60" height="30" as="geometry" />
        </mxCell>
        <mxCell id="I-vgnG-i18MrDywC4UqB-27" value="(1,N)" style="text;html=1;strokeColor=none;fillColor=none;align=center;verticalAlign=middle;whiteSpace=wrap;rounded=0;" vertex="1" parent="1">
          <mxGeometry x="270" y="280" width="60" height="30" as="geometry" />
        </mxCell>
        <mxCell id="I-vgnG-i18MrDywC4UqB-29" value="1:N" style="text;html=1;strokeColor=none;fillColor=none;align=center;verticalAlign=middle;whiteSpace=wrap;rounded=0;" vertex="1" parent="1">
          <mxGeometry x="160" y="270" width="60" height="30" as="geometry" />
        </mxCell>
        <mxCell id="I-vgnG-i18MrDywC4UqB-30" value="(1,N)" style="text;html=1;strokeColor=none;fillColor=none;align=center;verticalAlign=middle;whiteSpace=wrap;rounded=0;" vertex="1" parent="1">
          <mxGeometry x="60" y="180" width="60" height="30" as="geometry" />
        </mxCell>
        <mxCell id="I-vgnG-i18MrDywC4UqB-31" value="(1,N)" style="text;html=1;strokeColor=none;fillColor=none;align=center;verticalAlign=middle;whiteSpace=wrap;rounded=0;" vertex="1" parent="1">
          <mxGeometry x="330" y="340" width="60" height="30" as="geometry" />
        </mxCell>
        <mxCell id="I-vgnG-i18MrDywC4UqB-32" value="1:1" style="text;html=1;strokeColor=none;fillColor=none;align=center;verticalAlign=middle;whiteSpace=wrap;rounded=0;" vertex="1" parent="1">
          <mxGeometry x="170" y="370" width="60" height="30" as="geometry" />
        </mxCell>
        <mxCell id="I-vgnG-i18MrDywC4UqB-34" value="ubicada" style="rhombus;whiteSpace=wrap;html=1;" vertex="1" parent="1">
          <mxGeometry x="400" y="450" width="80" height="80" as="geometry" />
        </mxCell>
        <mxCell id="I-vgnG-i18MrDywC4UqB-35" value="" style="endArrow=none;html=1;rounded=0;exitX=0.5;exitY=0;exitDx=0;exitDy=0;entryX=0.908;entryY=1.033;entryDx=0;entryDy=0;entryPerimeter=0;" edge="1" parent="1" source="I-vgnG-i18MrDywC4UqB-34" target="InIGWuEx6WWt7c3NKyPj-2">
          <mxGeometry width="50" height="50" relative="1" as="geometry">
            <mxPoint x="380" y="395" as="sourcePoint" />
            <mxPoint x="440" y="345" as="targetPoint" />
          </mxGeometry>
        </mxCell>
        <mxCell id="I-vgnG-i18MrDywC4UqB-36" value="" style="endArrow=none;html=1;rounded=0;entryX=0;entryY=0.5;entryDx=0;entryDy=0;exitX=1;exitY=0.5;exitDx=0;exitDy=0;" edge="1" parent="1" source="I-vgnG-i18MrDywC4UqB-34" target="InIGWuEx6WWt7c3NKyPj-3">
          <mxGeometry width="50" height="50" relative="1" as="geometry">
            <mxPoint x="480" y="490" as="sourcePoint" />
            <mxPoint x="530" y="440" as="targetPoint" />
          </mxGeometry>
        </mxCell>
        <mxCell id="I-vgnG-i18MrDywC4UqB-37" value="(1,N)" style="text;html=1;strokeColor=none;fillColor=none;align=center;verticalAlign=middle;whiteSpace=wrap;rounded=0;" vertex="1" parent="1">
          <mxGeometry x="390" y="340" width="60" height="30" as="geometry" />
        </mxCell>
        <mxCell id="I-vgnG-i18MrDywC4UqB-38" value="(1,N)" style="text;html=1;strokeColor=none;fillColor=none;align=center;verticalAlign=middle;whiteSpace=wrap;rounded=0;" vertex="1" parent="1">
          <mxGeometry x="510" y="460" width="60" height="30" as="geometry" />
        </mxCell>
        <mxCell id="I-vgnG-i18MrDywC4UqB-39" value="(1,1)" style="text;html=1;strokeColor=none;fillColor=none;align=center;verticalAlign=middle;whiteSpace=wrap;rounded=0;" vertex="1" parent="1">
          <mxGeometry x="340" y="480" width="60" height="30" as="geometry" />
        </mxCell>
        <mxCell id="I-vgnG-i18MrDywC4UqB-40" value="empadronado" style="rhombus;whiteSpace=wrap;html=1;" vertex="1" parent="1">
          <mxGeometry x="110" y="520" width="80" height="80" as="geometry" />
        </mxCell>
        <mxCell id="I-vgnG-i18MrDywC4UqB-41" value="" style="endArrow=none;html=1;rounded=0;entryX=0;entryY=0.25;entryDx=0;entryDy=0;exitX=0;exitY=0.5;exitDx=0;exitDy=0;" edge="1" parent="1" source="I-vgnG-i18MrDywC4UqB-40" target="InIGWuEx6WWt7c3NKyPj-1">
          <mxGeometry width="50" height="50" relative="1" as="geometry">
            <mxPoint x="30" y="184" as="sourcePoint" />
            <mxPoint x="80" y="134" as="targetPoint" />
            <Array as="points">
              <mxPoint x="40" y="560" />
              <mxPoint x="40" y="390" />
              <mxPoint x="40" y="140" />
            </Array>
          </mxGeometry>
        </mxCell>
        <mxCell id="I-vgnG-i18MrDywC4UqB-42" value="" style="endArrow=none;html=1;rounded=0;entryX=0.5;entryY=1;entryDx=0;entryDy=0;exitX=1;exitY=0.5;exitDx=0;exitDy=0;" edge="1" parent="1" source="I-vgnG-i18MrDywC4UqB-40" target="InIGWuEx6WWt7c3NKyPj-3">
          <mxGeometry width="50" height="50" relative="1" as="geometry">
            <mxPoint x="190" y="590" as="sourcePoint" />
            <mxPoint x="240" y="540" as="targetPoint" />
            <Array as="points">
              <mxPoint x="620" y="560" />
            </Array>
          </mxGeometry>
        </mxCell>
        <mxCell id="I-vgnG-i18MrDywC4UqB-43" value="(1,N)" style="text;html=1;strokeColor=none;fillColor=none;align=center;verticalAlign=middle;whiteSpace=wrap;rounded=0;" vertex="1" parent="1">
          <mxGeometry x="40" y="110" width="60" height="30" as="geometry" />
        </mxCell>
        <mxCell id="I-vgnG-i18MrDywC4UqB-44" value="(1,N)" style="text;html=1;strokeColor=none;fillColor=none;align=center;verticalAlign=middle;whiteSpace=wrap;rounded=0;" vertex="1" parent="1">
          <mxGeometry x="615" y="520" width="60" height="30" as="geometry" />
        </mxCell>
        <mxCell id="I-vgnG-i18MrDywC4UqB-45" value="(1,1)" style="text;html=1;strokeColor=none;fillColor=none;align=center;verticalAlign=middle;whiteSpace=wrap;rounded=0;" vertex="1" parent="1">
          <mxGeometry x="160" y="520" width="60" height="30" as="geometry" />
        </mxCell>
        <mxCell id="I-vgnG-i18MrDywC4UqB-46" value="cabezaFamilia" style="ellipse;whiteSpace=wrap;html=1;" vertex="1" parent="1">
          <mxGeometry x="190" y="590" width="100" height="40" as="geometry" />
        </mxCell>
        <mxCell id="I-vgnG-i18MrDywC4UqB-47" value="" style="endArrow=none;html=1;rounded=0;entryX=0.5;entryY=1;entryDx=0;entryDy=0;exitX=0;exitY=0.5;exitDx=0;exitDy=0;" edge="1" parent="1" source="I-vgnG-i18MrDywC4UqB-46" target="I-vgnG-i18MrDywC4UqB-40">
          <mxGeometry width="50" height="50" relative="1" as="geometry">
            <mxPoint x="160" y="630" as="sourcePoint" />
            <mxPoint x="210" y="590" as="targetPoint" />
            <Array as="points">
              <mxPoint x="150" y="610" />
            </Array>
          </mxGeometry>
        </mxCell>
      </root>
    </mxGraphModel>
  </diagram>
</mxfile>
